<?xml version="1.0" encoding="UTF-8"?>
<svg id="Layer_1" xmlns="http://www.w3.org/2000/svg" version="1.1" viewBox="0 0 1080 493.72">
  <!-- Generator: Adobe Illustrator 30.0.0, SVG Export Plug-In . SVG Version: 2.1.1 Build 123)  -->
  <g>
    <path d="M447.59,212.98c7.53,4,16.12,6.01,25.79,6.01,8.63,0,16.3-1.61,23-4.82,6.7-3.21,12-7.54,15.9-13,3.9-5.45,5.92-11.46,6.06-18.02,0-1.1-.19-2.02-.57-2.74-.38-.73-.95-1.09-1.71-1.09-.48,0-1,.17-1.55.52-.55.35-1.24,1.04-2.07,2.07-1.8,5.11-4.94,9.03-9.43,11.76-4.49,2.73-9.88,4.09-16.16,4.09-9.88,0-17.76-3.26-23.67-9.79-4.21-4.65-6.92-11.09-8.13-19.31-.11-.77.49-1.46,1.27-1.46h53.83c2.76,0,4.88-.73,6.37-2.18,1.48-1.45,2.23-3.49,2.23-6.11,0-7.8-1.73-14.74-5.18-20.82-3.45-6.08-8.46-10.88-15.02-14.4-6.56-3.52-14.47-5.28-23.72-5.28-10.64,0-19.8,2.18-27.5,6.53-7.7,4.35-13.6,10.45-17.71,18.28-4.11,7.84-6.16,17.04-6.16,27.6,0,9.6,2.14,18.02,6.42,25.27,4.28,7.25,10.19,12.88,17.71,16.88ZM456.4,139.85c1.38-4.7,3.3-8.17,5.75-10.41,2.45-2.24,5.23-3.37,8.34-3.37,4.07,0,7.51,2.52,10.31,7.56,2.8,5.04,4.19,12.98,4.19,23.82,0,2.49-1.28,3.73-3.83,3.73h-25.24c-.85,0-1.55-.67-1.57-1.52-.01-.59-.02-1.19-.02-1.8,0-7.32.69-13.33,2.07-18.02Z"/>
    <path d="M526,135.7l4.56.31c.9.14,1.55.5,1.97,1.09.41.59.62,1.5.62,2.75v63.6c0,1.8-.21,3.11-.62,3.94-.41.83-1.14,1.42-2.18,1.76l-4.04,1.04c-.97.35-1.66.79-2.07,1.35-.41.55-.62,1.18-.62,1.86,0,1.04.33,1.83.98,2.38.66.55,1.67.83,3.06.83h44.44c2.76,0,4.14-1.1,4.14-3.31,0-1.38-.76-2.42-2.28-3.11l-3.83-1.04c-1.04-.34-1.78-.93-2.23-1.76-.45-.83-.67-2.14-.67-3.94v-59.55l.72-.63c2.62-2.28,5.33-3.99,8.13-5.13,2.8-1.14,5.47-1.71,8.03-1.71,4.14,0,7.39,1.26,9.74,3.78,2.35,2.52,3.52,6.41,3.52,11.65v51.38c0,1.8-.23,3.14-.67,4.04-.45.9-1.23,1.52-2.33,1.86l-3.83,1.04c-1.59.69-2.38,1.73-2.38,3.11,0,2.21,1.38,3.31,4.14,3.31h44.54c1.45,0,2.5-.27,3.16-.83.66-.55.98-1.35.98-2.38,0-.69-.23-1.31-.67-1.86-.45-.55-1.16-1-2.12-1.35l-3.63-.93c-1.11-.34-1.9-.97-2.38-1.86-.48-.9-.73-2.28-.73-4.14v-55.73c0-9.32-2.47-16.5-7.41-21.55-4.94-5.04-11.38-7.56-19.32-7.56-5.46,0-11.45,1.59-17.97,4.77-5.48,2.67-11.63,6.95-18.44,12.82-.42.36-1.08.07-1.08-.49v-12.03c0-1.45-.42-2.64-1.24-3.57-.83-.93-2.07-1.4-3.73-1.4-1.11,0-2.23.16-3.37.47s-2.71.85-4.71,1.61l-27.24,8.7c-1.31.48-2.21.97-2.69,1.45-.48.48-.73,1.17-.73,2.07,0,.76.19,1.38.57,1.86.38.48,1.02.83,1.92,1.04Z"/>
    <path d="M746.42,132.8c0,.76.21,1.38.62,1.86.41.48,1.07.83,1.97,1.04l4.56.31c.9.14,1.55.5,1.97,1.09.41.59.62,1.5.62,2.75v63.6c0,1.8-.21,3.11-.62,3.94-.42.83-1.18,1.42-2.28,1.76l-3.94,1.04c-.97.35-1.66.79-2.07,1.35-.41.55-.62,1.18-.62,1.86,0,1.04.33,1.83.98,2.38.66.55,1.67.83,3.06.83h45.06c1.38,0,2.4-.27,3.06-.83.66-.55.98-1.35.98-2.38,0-.76-.21-1.4-.62-1.92-.42-.52-1.14-.95-2.18-1.29l-3.83-1.04c-1.04-.34-1.78-.93-2.23-1.76-.45-.83-.67-2.14-.67-3.94v-79.97c0-1.45-.43-2.64-1.29-3.57-.86-.93-2.12-1.4-3.78-1.4-.97,0-2.02.16-3.16.47s-2.75.85-4.82,1.61l-27.24,8.7c-1.31.48-2.23.97-2.75,1.45-.52.48-.78,1.17-.78,2.07Z"/>
    <path d="M771.8,107.43c6.08,0,10.96-1.66,14.66-4.97,3.69-3.31,5.54-7.6,5.54-12.84s-1.85-9.43-5.54-12.74c-3.7-3.31-8.58-4.97-14.66-4.97s-10.84,1.66-14.5,4.97c-3.66,3.31-5.49,7.56-5.49,12.74s1.81,9.53,5.44,12.84c3.62,3.31,8.48,4.97,14.55,4.97Z"/>
    <path d="M891.49,201.17c3.9-5.45,5.92-11.46,6.06-18.02,0-1.1-.19-2.02-.57-2.74-.38-.73-.95-1.09-1.71-1.09-.48,0-1,.17-1.55.52-.55.35-1.24,1.04-2.07,2.07-1.8,5.11-4.94,9.03-9.43,11.76-4.49,2.73-9.88,4.09-16.16,4.09-9.88,0-17.76-3.26-23.67-9.79-4.12-4.55-6.8-10.81-8.04-18.78-.16-1.04.62-1.99,1.68-1.99h53.34c2.76,0,4.88-.73,6.37-2.18,1.48-1.45,2.23-3.49,2.23-6.11,0-7.8-1.73-14.74-5.18-20.82-3.45-6.08-8.46-10.88-15.02-14.4-6.56-3.52-14.47-5.28-23.72-5.28-10.63,0-19.8,2.18-27.5,6.53-7.7,4.35-13.6,10.45-17.71,18.28-4.11,7.84-6.16,17.04-6.16,27.6,0,9.6,2.14,18.02,6.42,25.27,4.28,7.25,10.19,12.88,17.71,16.88,7.53,4,16.12,6.01,25.79,6.01,8.63,0,16.3-1.61,23-4.82,6.7-3.21,12-7.54,15.9-13ZM835.61,139.85c1.38-4.7,3.3-8.17,5.75-10.41,2.45-2.24,5.23-3.37,8.34-3.37,4.07,0,7.51,2.52,10.31,7.56,2.8,5.04,4.2,12.98,4.2,23.82,0,2.49-1.28,3.73-3.83,3.73h-24.93c-1.03,0-1.87-.83-1.89-1.86,0-.48-.01-.96-.01-1.45,0-7.32.69-13.33,2.07-18.02Z"/>
    <path d="M1019.52,211.53c-.45-.55-1.16-1-2.12-1.35l-3.63-.93c-1.11-.34-1.9-.97-2.38-1.86-.48-.9-.73-2.28-.73-4.14v-55.73c0-9.32-2.47-16.5-7.41-21.55-4.94-5.04-11.38-7.56-19.32-7.56-5.46,0-11.45,1.59-17.97,4.77-5.48,2.67-11.64,6.95-18.47,12.84-.41.36-1.06.07-1.06-.48v-12.05c0-1.45-.42-2.64-1.24-3.57-.83-.93-2.07-1.4-3.73-1.4-1.11,0-2.23.16-3.37.47s-2.71.85-4.71,1.61l-27.24,8.7c-1.31.48-2.21.97-2.69,1.45-.48.48-.73,1.17-.73,2.07,0,.76.19,1.38.57,1.86.38.48,1.02.83,1.92,1.04l4.56.31c.9.14,1.55.5,1.97,1.09.42.59.62,1.5.62,2.75v63.6c0,1.8-.21,3.11-.62,3.94-.41.83-1.14,1.42-2.17,1.76l-4.04,1.04c-.97.35-1.66.79-2.07,1.35-.41.55-.62,1.18-.62,1.86,0,1.04.33,1.83.98,2.38.66.55,1.67.83,3.06.83h44.44c2.76,0,4.14-1.1,4.14-3.31,0-1.38-.76-2.42-2.28-3.11l-3.83-1.04c-1.04-.34-1.78-.93-2.23-1.76-.45-.83-.67-2.14-.67-3.94v-59.55l.72-.63c2.62-2.28,5.33-3.99,8.13-5.13,2.8-1.14,5.47-1.71,8.03-1.71,4.14,0,7.39,1.26,9.74,3.78,2.35,2.52,3.52,6.41,3.52,11.65v51.38c0,1.8-.23,3.14-.67,4.04-.45.9-1.23,1.52-2.33,1.86l-3.83,1.04c-1.59.69-2.38,1.73-2.38,3.11,0,2.21,1.38,3.31,4.14,3.31h44.54c1.45,0,2.5-.27,3.16-.83.66-.55.98-1.35.98-2.38,0-.69-.23-1.31-.67-1.86Z"/>
    <path d="M514.45,295.45c-6.18-3.94-13.24-5.9-21.18-5.9s-14.52,1.99-20.56,5.96c-2.85,1.87-5.59,4.16-8.23,6.82v-64.77c0-1.45-.43-2.64-1.29-3.57-.86-.93-2.16-1.4-3.88-1.4-.9,0-1.92.16-3.06.47-1.14.31-2.75.85-4.82,1.61l-27.24,8.7c-1.31.48-2.23.97-2.74,1.45-.52.48-.78,1.17-.78,2.07,0,.76.21,1.38.62,1.86.41.48,1.07.83,1.97,1.04l4.56.31c.9.14,1.55.48,1.97,1.04.41.55.62,1.49.62,2.8v131.86c0,1.31.38,2.31,1.14,3,.76.69,1.76,1.04,3,1.04,1.04,0,2.16-.16,3.37-.47,1.21-.31,3.16-.92,5.85-1.81l17.33-6.5c1.87,1.75,3.87,3.27,6.03,4.53,5.21,3.04,11.58,4.56,19.11,4.56,9.18,0,17.4-2.19,24.65-6.58,7.25-4.38,12.95-10.58,17.09-18.59,4.14-8.01,6.22-17.37,6.22-28.07,0-9.53-1.75-17.83-5.23-24.91-3.49-7.08-8.32-12.59-14.5-16.52ZM496.59,363.91c-1.73,5.94-4.13,10.22-7.2,12.84-3.07,2.63-6.61,3.94-10.62,3.94s-7.34-1.05-10.41-3.16l-.04-.03c-2.41-1.65-3.84-4.38-3.84-7.3v-54.96c0-3.79,1.86-7.33,4.97-9.49h0c3.45-2.38,7.08-3.57,10.88-3.57s6.99,1.29,9.79,3.88c2.8,2.59,5.01,6.68,6.63,12.27,1.62,5.59,2.43,12.88,2.43,21.86,0,9.88-.86,17.78-2.59,23.72Z"/>
    <path d="M641.19,370.86c-.41,0-.76.1-1.04.31-.28.21-.55.52-.83.93-.41,1.24-1.05,2.23-1.92,2.95-.86.73-1.92,1.09-3.16,1.09-1.31,0-2.35-.47-3.11-1.4-.76-.93-1.14-2.29-1.14-4.09v-52.1c0-9.05-3.2-16.12-9.58-21.23-6.39-5.11-16.11-7.67-29.16-7.67-10.29,0-18.92,1.35-25.9,4.04-6.98,2.69-12.22,6.08-15.75,10.15-3.52,4.08-5.28,8.15-5.28,12.22s1.21,7.08,3.62,9.22c2.42,2.14,5.8,3.21,10.15,3.21,5.52,0,9.87-1.4,13.05-4.19,3.17-2.8,4.76-6.47,4.76-11.03v-9.94c0-2.28.88-4.2,2.64-5.75,1.76-1.55,4.23-2.33,7.41-2.33s5.66,1.05,7.46,3.16c1.79,2.11,2.69,5.02,2.69,8.75v31.13c0,.91-.86,1.58-1.74,1.35h-.02c-2.83-.73-6.25-1.09-10.25-1.09-14.78,0-25.88,2.54-33.3,7.61-7.42,5.08-11.14,11.86-11.14,20.35,0,6.91,2.71,12.57,8.13,16.99,5.42,4.42,12.48,6.63,21.18,6.63,6.7,0,12.98-1.35,18.85-4.04,4.26-1.96,7.83-4.52,10.71-7.69.58,3.04,2.27,5.63,5.09,7.74,3.56,2.66,8.68,3.99,15.38,3.99,5.59,0,10.15-.97,13.67-2.9,3.52-1.93,6.13-4.21,7.82-6.84,1.69-2.62,2.54-4.97,2.54-7.04,0-.76-.16-1.36-.47-1.81-.31-.45-.78-.67-1.4-.67ZM586.18,377.48c-3.66,0-6.65-1.36-8.96-4.09-2.31-2.73-3.47-6.82-3.47-12.27s1.23-9.75,3.68-12.69c2.45-2.93,5.85-4.4,10.2-4.4,2.35,0,4.47.24,6.37.73h.02c1.24.32,2.1,1.44,2.1,2.71v24.98c0,.97-.48,1.89-1.29,2.42-.35.23-.71.45-1.09.65-2.42,1.31-4.94,1.97-7.56,1.97Z"/>
    <path d="M727.99,286.33c2,0,3.64.59,4.92,1.76,1.28,1.18,2.49,2.56,3.63,4.14,1.14,1.59,2.43,2.99,3.88,4.19,1.45,1.21,3.42,1.81,5.9,1.81,3.73,0,6.65-1.24,8.75-3.73,2.11-2.49,3.16-5.83,3.16-10.05,0-4.83-1.43-8.65-4.3-11.45-2.87-2.8-6.78-4.19-11.76-4.19-6.01,0-11.36,2.04-16.05,6.11-3.81,3.3-7.11,7.74-9.91,13.31-1.02,2.02-3.28,3.05-5.52,2.66-4.04-.71-8.39-1.06-13.06-1.06-10.5,0-19.58,1.67-27.24,5.02-7.67,3.35-13.55,7.99-17.66,13.93-4.11,5.94-6.16,12.71-6.16,20.3,0,6.63,1.93,12.65,5.8,18.08,3.87,5.42,9.44,9.72,16.73,12.9,1.93.84,3.97,1.57,6.11,2.18.78.22.74,1.35-.05,1.53-2.42.56-4.57,1.24-6.42,2.03-4.42,1.9-7.58,4.25-9.48,7.04-1.9,2.8-2.85,5.89-2.85,9.27,0,3.66,1.05,6.7,3.16,9.12,1.14,1.31,2.74,2.51,4.81,3.61,1.18.63.95,2.37-.35,2.67-5.99,1.38-10.52,3.2-13.58,5.47-4.8,3.56-7.2,8.03-7.2,13.41,0,4.35,1.64,8.18,4.92,11.5,3.28,3.31,8.7,5.9,16.26,7.77,7.56,1.86,17.69,2.8,30.4,2.8,18.71,0,33.06-3.07,43.04-9.22,9.98-6.15,14.97-14.09,14.97-23.82,0-5.32-1.29-9.79-3.88-13.41s-6.92-6.58-13-8.86c-6.08-2.28-14.33-4.07-24.76-5.39-8.49-1.24-14.71-2.36-18.65-3.37-3.94-1-6.49-1.97-7.67-2.9-1.17-.93-1.76-1.95-1.76-3.06,0-1.17.41-2.19,1.24-3.06h.01c.68-.72,1.64-1.06,2.62-.97,2.64.26,5.38.4,8.24.4,9.94,0,18.66-1.66,26.16-4.97,7.49-3.31,13.33-7.91,17.5-13.78,4.18-5.87,6.27-12.57,6.27-20.1,0-6.63-1.86-12.69-5.59-18.18-3.73-5.49-9.15-9.86-16.26-13.1-.41-.19-.83-.37-1.25-.54-1.4-.58-1.92-2.27-1.09-3.53.45-.68.88-1.25,1.3-1.73,1.52-1.73,3.42-2.59,5.7-2.59ZM692.87,402.24c8.15,1.24,14.48,2.55,19.01,3.94,4.52,1.38,7.7,2.97,9.53,4.76,1.83,1.79,2.74,3.97,2.74,6.53,0,3.04-.86,5.58-2.59,7.61-1.73,2.04-4.44,3.56-8.13,4.56-3.69,1-8.58,1.5-14.66,1.5-10.91,0-18.78-2.11-23.62-6.32-4.83-4.21-7.25-9.84-7.25-16.88,0-2.35.74-4.45,2.23-6.32h0c1.64-2.06,4.31-3,6.86-2.38,4.39,1.06,9.68,2.06,15.87,3ZM709.03,348.95c-1.8,5.35-4.8,8.23-9.01,8.65-2.9.28-5.59-.67-8.08-2.85s-4.61-5.52-6.37-10.05c-1.76-4.52-3.09-10.1-3.99-16.73-.9-6.49-1.09-12.02-.57-16.57.52-4.56,1.66-8.1,3.42-10.62,1.76-2.52,4.06-3.92,6.89-4.19,4.42-.41,8.25,1.93,11.5,7.04,3.25,5.11,5.52,12.64,6.84,22.58,1.38,9.81,1.17,17.39-.62,22.74Z"/>
    <path d="M847.88,336.15c1.48-1.45,2.23-3.49,2.23-6.11,0-7.8-1.73-14.74-5.18-20.82-3.45-6.08-8.46-10.88-15.02-14.4-6.56-3.52-14.47-5.28-23.72-5.28-10.63,0-19.8,2.18-27.5,6.53-7.7,4.35-13.6,10.45-17.71,18.28-4.11,7.84-6.16,17.04-6.16,27.6,0,9.6,2.14,18.02,6.42,25.27,4.28,7.25,10.19,12.88,17.71,16.88,7.53,4,16.12,6.01,25.79,6.01,8.63,0,16.3-1.61,23-4.82,6.7-3.21,12-7.54,15.9-13,3.9-5.45,5.92-11.46,6.06-18.02,0-1.1-.19-2.02-.57-2.74-.38-.73-.95-1.09-1.71-1.09-.48,0-1,.17-1.55.52-.55.35-1.24,1.04-2.07,2.07-1.8,5.11-4.94,9.03-9.43,11.76-4.49,2.73-9.88,4.09-16.16,4.09-9.88,0-17.76-3.26-23.67-9.79-4.08-4.51-6.75-10.71-8.01-18.57-.18-1.15.69-2.2,1.85-2.2h53.13c2.76,0,4.88-.73,6.37-2.18ZM812.51,332.32h-24.94c-1.03,0-1.86-.82-1.88-1.85,0-.48-.01-.97-.01-1.46,0-7.32.69-13.33,2.07-18.02,1.38-4.7,3.3-8.17,5.75-10.41,2.45-2.24,5.23-3.37,8.34-3.37,4.07,0,7.51,2.52,10.31,7.56,2.8,5.04,4.2,12.98,4.2,23.82,0,2.49-1.28,3.73-3.83,3.73Z"/>
    <path d="M905.84,381.32l-3.83-1.04c-1.04-.34-1.78-.93-2.23-1.76-.45-.83-.67-2.14-.67-3.94v-137.04c0-1.45-.43-2.64-1.29-3.57-.86-.93-2.16-1.4-3.88-1.4-.9,0-1.92.16-3.06.47-1.14.31-2.74.85-4.82,1.61l-27.24,8.7c-1.31.48-2.23.97-2.75,1.45-.52.48-.78,1.17-.78,2.07,0,.76.21,1.38.62,1.86.41.48,1.07.83,1.97,1.04l4.56.31c.9.14,1.55.48,1.97,1.04.41.55.62,1.49.62,2.8v120.67c0,1.8-.22,3.11-.67,3.94-.45.83-1.19,1.42-2.23,1.76l-3.83,1.04c-1.04.35-1.78.79-2.23,1.35-.45.55-.67,1.18-.67,1.86,0,1.04.34,1.83,1.04,2.38.69.55,1.69.83,3,.83h45.06c1.45,0,2.5-.27,3.16-.83.66-.55.98-1.35.98-2.38,0-.76-.21-1.4-.62-1.92s-1.14-.95-2.18-1.29Z"/>
    <path d="M982.33,332.06c-5.63-3.42-13.59-6.37-23.88-8.86-4.97-1.31-8.79-2.73-11.45-4.25-2.66-1.52-4.47-3.19-5.44-5.02-.97-1.83-1.45-3.81-1.45-5.96,0-3.31,1.19-6.01,3.57-8.08,2.38-2.07,5.71-3.11,10-3.11,5.45,0,10.91,1.8,16.37,5.39,5.45,3.59,10.84,9.7,16.16,18.33.9,1.31,1.78,2.23,2.64,2.75.86.52,1.78.54,2.75.05,1.17-.48,1.88-1.24,2.12-2.28.24-1.04.16-2.55-.26-4.56l-4.04-22.27c-.28-1.59-.74-2.71-1.4-3.37-.66-.66-1.43-.98-2.33-.98-1.11,0-2.38.43-3.83,1.29-1.45.86-2.9,1.75-4.35,2.64-1.45.9-2.76,1.35-3.94,1.35-1.11,0-2.56-.47-4.35-1.4-1.8-.93-4.14-1.86-7.04-2.8-2.9-.93-6.59-1.4-11.08-1.4-7.04,0-13.35,1.28-18.9,3.83-5.56,2.56-9.94,6.15-13.16,10.77-3.21,4.63-4.82,10.08-4.82,16.37,0,5.59,1.1,10.58,3.31,14.97,2.21,4.39,5.87,8.2,10.98,11.45,5.11,3.25,11.98,5.87,20.61,7.87,6.15,1.45,10.82,2.99,14.04,4.61,3.21,1.62,5.4,3.38,6.58,5.28,1.17,1.9,1.76,4.02,1.76,6.37,0,3.66-1.26,6.58-3.78,8.75-2.52,2.18-6.23,3.26-11.13,3.26-4.28,0-8.37-.84-12.27-2.54-3.9-1.69-7.7-4.45-11.39-8.29-3.7-3.83-7.44-8.99-11.24-15.49-.76-1.24-1.57-2.05-2.43-2.43-.86-.38-1.88-.36-3.06.05-1.04.41-1.67,1.19-1.92,2.33-.24,1.14-.12,2.71.36,4.71l5.59,24.96c.41,1.45.9,2.45,1.45,3,.55.55,1.28.83,2.17.83,1.1,0,2.38-.41,3.83-1.24,1.45-.83,2.92-1.64,4.4-2.43,1.48-.79,2.85-1.19,4.09-1.19.97,0,2.29.4,3.99,1.19,1.69.79,3.99,1.59,6.89,2.38,2.9.79,6.66,1.19,11.29,1.19,12.43,0,22.04-2.74,28.85-8.23,6.8-5.49,10.2-13.17,10.2-23.05,0-5.52-1.11-10.51-3.31-14.97-2.21-4.45-6.13-8.39-11.76-11.81Z"/>
    <path d="M746.74,121.72c-.69-.55-1.66-.83-2.9-.83h-26.83c-1.17,0-2.12.28-2.85.83-.73.55-1.09,1.35-1.09,2.38,0,.76.24,1.4.73,1.92.48.52,1.28.92,2.38,1.19l4.14.93h.01c1.73.38,2.97,1.91,2.95,3.68,0,.72-.13,1.55-.42,2.49-1.19,3.88-11.82,31.48-16.96,44.77-.74,1.92-3.46,1.9-4.18-.02l-15.48-41.08c-1.17-3.18-1.43-5.44-.78-6.78.66-1.35,2.54-2.36,5.65-3.06l4.04-.93c1.1-.28,1.9-.67,2.38-1.19.48-.52.72-1.16.72-1.92,0-2.14-1.31-3.21-3.94-3.21h-51.48c-1.17,0-2.12.28-2.85.83-.73.55-1.09,1.35-1.09,2.38,0,.76.21,1.4.62,1.92.42.52,1.1.95,2.07,1.29l3.31.93c.9.28,1.66.79,2.28,1.55.62.76,1.31,2.11,2.07,4.04l30.56,78c.69,1.73,1.62,3,2.8,3.83,1.17.83,2.55,1.24,4.14,1.24h13.47c1.45,0,2.8-.33,4.04-.98,1.24-.66,2.21-1.85,2.9-3.57l26.62-72.71c1.45-3.94,2.78-6.75,3.99-8.44,1.21-1.69,2.64-2.78,4.3-3.26l2.8-.73c1.17-.34,1.95-.78,2.33-1.29.38-.52.57-1.12.57-1.81,0-1.04-.35-1.83-1.04-2.38Z"/>
  </g>
  <g>
    <path d="M396.19,295.26c-.74-5.7-3.97-13.64-15.08-19.04-23.32-11.34-48.09,7.82-49.13,8.64-2.21,1.74-2.59,4.93-.85,7.14,1.73,2.21,4.93,2.59,7.15.87.21-.16,20.83-16.02,38.38-7.49,5.73,2.78,8.81,6.45,9.44,11.2.9,6.89-3.68,14.16-6.22,16.35-1.46,1.26-2.08,3.23-1.61,5.1.12.46,1.06,4.61-1.62,7.94-2.17,2.71-5.42,3.22-7.16,3.28-1.07.04-3.88.15-6.17-1.82-.48-.42-2.89-2.67-2.67-5.99,0-.15.28-3.73,3.21-5.42,3.05-1.75,6.39-.02,6.5.03,2.46,1.37,5.56.48,6.93-1.97,1.37-2.46.48-5.56-1.98-6.93-.85-.48-8.59-4.52-16.53.03-7.32,4.21-8.2,12.05-8.3,13.57-.53,7.94,4.59,13.01,6.18,14.38,3.32,2.86,7.44,4.31,12.27,4.31.31,0,.61,0,.93-.02,6-.22,11.23-2.74,14.72-7.08,3.96-4.92,4.31-10.42,4.03-13.82,4.19-4.83,8.82-13.75,7.58-23.27Z"/>
    <path d="M349.64,377.28c-4.6-8.92-7.63-14.81-14.83-16.63-4.91-1.25-12.11-.26-16.27,4.84-3.44,4.21-3.39,9.4-2.29,14.08-2.5,2.41-8.44,7.02-17.68,7.55-7.24.43-12.54-5.51-15.39-9.77,25.97-8.76,48.2-22.75,62.25-40.09,1.77-2.19,1.43-5.39-.75-7.16-2.18-1.77-5.39-1.43-7.16.75-21.8,26.92-65.52,45.11-111.38,46.35-30.33.85-57.64-5.71-79.66-18.75-.45-.4-.97-.72-1.54-.94-9.18-5.63-17.41-12.39-24.51-20.25-25.47-28.2-35.64-66.73-27.9-105.72,8.53-42.95,37.31-79.85,76.97-98.71,36.43-17.32,77.17-20.85,114.74-9.93,33.07,9.61,60.76,29.74,74.08,53.85,25.83,46.77,14.72,87.87,14.53,88.53-.78,2.7.78,5.52,3.48,6.3,2.7.78,5.53-.78,6.31-3.48.53-1.83,12.64-45.5-15.4-96.28-14.59-26.41-44.55-48.36-80.15-58.71-39.97-11.62-83.28-7.88-121.96,10.51-42.56,20.24-73.43,59.83-82.59,105.92-3.54,17.81-3.6,35.54-.42,52.39-6.16,2.08-20.54,5.55-31.51-2.63-5.26-3.92-8.3-8.65-9.02-14.04-.31-2.33-.15-4.5.2-6.32,2.95,1.74,6.39,2.76,10.09,2.76,10.74,0,19.49-8.48,19.49-18.91s-8.74-18.91-19.49-18.91-19.49,8.48-19.49,18.91c0,2.67.58,5.2,1.61,7.5-1.73,3.52-3.25,9.02-2.62,15.33.59,5.93,3.34,14.54,13.14,21.84,7.39,5.51,15.6,7.23,22.95,7.23,6.82,0,12.9-1.48,16.94-2.78,5.22,19.24,14.82,37.06,28.46,52.16,5.26,5.82,11.08,11.08,17.39,15.78-5.82,2.14-12.73,5.97-18.78,12.83-.66-.7-1.29-1.34-1.85-1.92-2.77-2.82-17.17-16.57-28.51-10.41-1.49.81-5.13,3.19-6.64,7.77-1.74,5.26.56,9.93,1.94,12.71,1.95,3.94,4.7,7.37,8.93,11.12,6.85,6.09,11.58,10.29,17.96,10.29.61,0,1.23-.04,1.87-.12,5.04-.61,11.39-4.12,13.44-10.38,1.23-3.77.54-7.35-.97-10.55,8.59-11.02,20.03-13.28,24.1-13.74,22.26,13.06,49.37,19.98,79.33,19.98,1.77,0,3.55-.02,5.34-.07,16.03-.43,31.84-2.87,46.68-6.96,3.26,5.67,11.4,16.9,24.69,16.9.45,0,.92-.01,1.38-.04,9.44-.54,16.41-4.28,20.82-7.6,2.46,5.21,9.85,18.7,20.56,18.7.54,0,1.1-.04,1.66-.11,1.68-.22,5.93-1.13,8.99-4.85,3.52-4.29,3.05-9.46,2.77-12.56-.4-4.37-1.73-8.57-4.32-13.6ZM51.87,234.08c5.13,0,9.3,3.91,9.3,8.72s-4.17,8.72-9.3,8.72-9.3-3.91-9.3-8.72,4.17-8.72,9.3-8.72ZM108.92,388.61c-.52,1.6-2.81,3.17-4.99,3.44-2.67.34-5.57-2.11-11.83-7.68-4.08-3.62-5.61-6.09-6.56-8.02-1.04-2.1-1.8-3.8-1.4-5,.32-.98,1.34-1.74,1.83-2.01.39-.21.88-.31,1.46-.31,3.45,0,9.81,3.7,14.93,8.91,1.01,1.03,2.47,2.52,3.77,4.12.15,1.5.94,2.93,2.31,3.81.06.04.12.06.19.1.4.97.55,1.88.3,2.65ZM343.32,396.97c-.66.8-1.88,1.14-2.43,1.22-3.13.37-8.81-6.1-12.19-13.93-1.39-3.21-4.27-9.88-2.27-12.33,1.06-1.3,3.76-1.95,5.89-1.41,2.63.67,4.43,3.98,8.27,11.43,2.5,4.85,3.04,7.7,3.23,9.85.21,2.33.31,4.19-.5,5.17Z"/>
    <path d="M242.7,243.44c.99-3.22,3.72-14.58-2.77-25.66-5.62-9.6-16.48-15.76-27.74-15.76-.11,0-.21,0-.32,0-9.46.1-19.14,4.7-25.89,12.3-6.24,7.03-9.15,15.71-8.2,24.44,1.69,15.43,14.85,27.9,30.62,29,.77.05,1.53.08,2.29.08,16.11,0,28.2-11.98,32.01-24.39ZM232.96,240.45c-2.81,9.15-11.9,17.99-23.85,17.14-10.92-.76-20.04-9.33-21.2-19.94-.64-5.83,1.38-11.71,5.69-16.57,4.8-5.41,11.84-8.81,18.37-8.87.06,0,.13,0,.19,0,5.9,0,14.32,2.8,18.97,10.72,4.39,7.5,2.51,15.3,1.83,17.52,0,0,0,0,0,0Z"/>
    <path d="M248.06,175.22c-2.16,1.51-2.22,5.16-.14,8.14,2.09,2.98,5.53,4.18,7.7,2.66s2.22-5.16.14-8.14-5.53-4.18-7.7-2.66Z"/>
    <path d="M291.46,216.88c2.41-1.07,3.17-4.64,1.69-7.97-1.48-3.33-4.63-5.16-7.05-4.09s-3.17,4.64-1.69,7.97c1.48,3.33,4.63,5.16,7.05,4.09Z"/>
    <path d="M338.35,197.97c-1.48-3.33-4.63-5.16-7.05-4.09-2.41,1.07-3.17,4.64-1.69,7.97,1.48,3.33,4.63,5.16,7.05,4.09,2.41-1.07,3.17-4.64,1.69-7.97Z"/>
    <path d="M300.05,174.8c1.87-1.86,1.31-5.46-1.26-8.05-2.57-2.58-6.17-3.17-8.04-1.31-1.87,1.86-1.31,5.46,1.26,8.05,2.57,2.58,6.17,3.17,8.04,1.31Z"/>
    <path d="M287.14,150.84c3.59.64,6.87-.95,7.33-3.55.46-2.6-2.07-5.22-5.66-5.86s-6.87.95-7.33,3.55c-.46,2.6,2.07,5.22,5.66,5.86Z"/>
    <path d="M212.31,166.43c2.62-2.53,3.26-6.12,1.43-8.02-1.83-1.9-5.44-1.39-8.06,1.14-2.62,2.53-3.26,6.12-1.43,8.02s5.44,1.39,8.06-1.14Z"/>
    <path d="M180.38,149.74c2.62-2.53,3.26-6.12,1.43-8.02-1.83-1.9-5.44-1.39-8.06,1.14-2.62,2.53-3.26,6.12-1.43,8.02,1.83,1.9,5.44,1.39,8.06-1.14Z"/>
    <path d="M230.67,137.6c3.6-.54,6.2-3.1,5.81-5.71-.39-2.61-3.63-4.29-7.23-3.74-3.6.54-6.2,3.1-5.81,5.71.39,2.61,3.63,4.29,7.23,3.74Z"/>
    <path d="M140.77,187.47c-1.75-1.97-5.38-1.61-8.1.8-2.72,2.42-3.51,5.98-1.76,7.95,1.75,1.97,5.38,1.61,8.1-.8,2.72-2.42,3.51-5.98,1.76-7.95Z"/>
    <path d="M142.86,232.26c2.28-2.84,2.45-6.49.4-8.14-2.06-1.65-5.57-.68-7.85,2.16-2.28,2.84-2.45,6.49-.4,8.14,2.06,1.65,5.57.68,7.85-2.16Z"/>
    <path d="M326.48,247.28c-2.29,1.32-2.67,4.95-.85,8.1,1.82,3.16,5.15,4.64,7.44,3.32s2.67-4.95.85-8.1-5.15-4.64-7.44-3.32Z"/>
    <path d="M101.76,232.42c-1.14,3.46-.03,6.93,2.48,7.76,2.51.83,5.46-1.31,6.6-4.77,1.14-3.46.03-6.93-2.48-7.76-2.51-.83-5.46,1.31-6.6,4.77Z"/>
    <path d="M162.5,186.08c-2.48,2.67-2.93,6.29-1,8.09,1.93,1.8,5.51,1.1,7.99-1.57,2.48-2.67,2.93-6.29,1-8.09s-5.51-1.1-7.99,1.57Z"/>
    <path d="M274.93,282.64c-1.97,3.07-1.76,6.71.46,8.13,2.22,1.43,5.62.1,7.59-2.97s1.76-6.71-.46-8.13c-2.22-1.43-5.62-.1-7.59,2.97Z"/>
    <path d="M209.38,291.09c-2.92,7.05-1.6,14.29,2.95,16.18,4.55,1.89,10.61-2.29,13.54-9.34,2.92-7.05,1.6-14.29-2.95-16.18-4.55-1.89-10.61,2.29-13.54,9.34Z"/>
    <ellipse cx="165.81" cy="283.03" rx="12.78" ry="8.26" transform="translate(-159.15 327.76) rotate(-67.47)"/>
    <path d="M186.44,299.39c1.54.19,3-.61,3.69-1.98l2.88-5.76c.9-1.8.17-3.98-1.63-4.88-1.8-.9-3.98-.17-4.88,1.63l-1.8,3.59c-3.98-.08-10.64.65-11.76,6.24-.73,3.64-.36,8.67,5.54,11.95.56.31,1.17.46,1.76.46,1.28,0,2.52-.68,3.18-1.87.97-1.76.34-3.97-1.41-4.95-1.79-.99-2.31-2-1.99-3.91.92-.56,3.95-.82,6.41-.53Z"/>
    <path d="M182.51,347.48c.13,0,.25,0,.37,0,17.47,0,23.36-18.75,24.04-28.73.08-1.21-.45-2.39-1.41-3.13-.96-.74-2.23-.95-3.38-.57-21.73,7.33-31.24-4.02-31.68-4.56-.9-1.15-2.4-1.64-3.81-1.26-1.42.38-2.46,1.58-2.65,3.04-.11.8-2.48,19.79,5.92,29.5,3.2,3.7,7.44,5.62,12.6,5.69ZM198.77,323.58c-.45,1.93-1.13,4.18-2.12,6.4-3.13,6.98-7.76,10.28-14.04,10.23-3.04-.05-5.4-1.08-7.2-3.17-3.46-3.99-4.44-11.17-4.54-16.88,5.45,3.32,14.61,6.48,27.9,3.42Z"/>
  </g>
</svg>