<?xml version="1.0" encoding="UTF-8"?>
<svg id="Layer_1" xmlns="http://www.w3.org/2000/svg" version="1.1" viewBox="0 0 493.72 493.72">
  <!-- Generator: Adobe Illustrator 30.0.0, SVG Export Plug-In . SVG Version: 2.1.1 Build 123)  -->
  <defs>
    <style>
      .st0 {
        fill: #fff;
      }
    </style>
  </defs>
  <path class="st0" d="M486.84,296.62c-.98-7.51-5.22-17.94-19.84-25.05-30.69-14.92-63.28,10.29-64.65,11.37-2.9,2.29-3.4,6.49-1.12,9.4,2.28,2.91,6.49,3.42,9.4,1.14.27-.21,27.41-21.08,50.51-9.85,7.54,3.66,11.6,8.48,12.41,14.74,1.18,9.06-4.85,18.63-8.18,21.51-1.92,1.66-2.74,4.26-2.12,6.72.06.24,1.46,5.96-2.14,10.44-2.86,3.56-7.13,4.23-9.42,4.32-1.4.05-5.11.19-8.12-2.41-.64-.55-3.8-3.5-3.5-7.86.03-.5.44-4.97,4.23-7.14,4.01-2.31,8.41-.03,8.54.04,3.23,1.81,7.31.65,9.12-2.58,1.8-3.23.65-7.31-2.58-9.12-1.12-.63-11.3-5.97-21.76.04-7.45,4.28-10.53,12.03-10.92,17.86-.7,10.46,6.05,17.13,8.13,18.92,4.36,3.77,9.79,5.67,16.15,5.67.4,0,.81,0,1.22-.02,7.9-.3,14.78-3.6,19.37-9.32,5.21-6.49,5.68-13.72,5.31-18.19,5.51-6.36,11.61-18.1,9.97-30.62Z"/>
  <path class="st0" d="M425.58,404.55c-6.05-11.74-10.05-19.5-19.52-21.89-6.47-1.64-15.93-.34-21.41,6.37-4.53,5.55-4.47,12.37-3.02,18.53-3.29,3.17-11.1,9.24-23.26,9.94-9.53.53-16.5-7.26-20.25-12.85,34.17-11.53,63.43-29.93,81.9-52.75,2.33-2.88,1.89-7.1-.99-9.43-2.87-2.33-7.09-1.89-9.43.99-28.68,35.42-86.2,59.36-146.55,60.99-39.89,1.09-75.84-7.53-104.82-24.69-.61-.54-1.31-.97-2.07-1.26-12.06-7.39-22.87-16.29-32.2-26.61-33.52-37.1-46.9-87.8-36.71-139.11,11.23-56.51,49.09-105.06,101.28-129.88,47.93-22.79,101.54-27.43,150.98-13.06,43.51,12.65,79.95,39.14,97.47,70.86,34.1,61.73,19.27,115.96,19.12,116.5-1.02,3.55,1.03,7.26,4.58,8.29,3.55,1.03,7.27-1.02,8.3-4.58.7-2.41,16.63-59.87-20.27-126.69-19.19-34.75-58.62-63.63-105.46-77.25-52.59-15.28-109.58-10.37-160.47,13.83-56,26.63-96.62,78.73-108.67,139.38-4.66,23.43-4.73,46.76-.55,68.93-8.11,2.74-27.03,7.3-41.46-3.46-6.92-5.16-10.92-11.38-11.87-18.47-.41-3.07-.19-5.92.27-8.31,3.88,2.29,8.41,3.64,13.28,3.64,14.14,0,25.64-11.16,25.64-24.88s-11.5-24.88-25.64-24.88-25.64,11.16-25.64,24.88c0,3.51.76,6.84,2.11,9.87-2.28,4.63-4.27,11.87-3.45,20.17.77,7.81,4.4,19.13,17.29,28.74,9.73,7.26,20.52,9.52,30.2,9.52,8.98,0,16.97-1.94,22.29-3.65,6.87,25.32,19.5,48.76,37.45,68.63,6.92,7.66,14.58,14.58,22.88,20.77-7.66,2.81-16.75,7.85-24.71,16.88-.87-.92-1.7-1.77-2.44-2.52-3.64-3.71-22.58-21.8-37.53-13.69-1.96,1.07-6.75,4.2-8.73,10.21-2.29,6.93.74,13.07,2.55,16.73,2.56,5.18,6.18,9.69,11.75,14.64,9.02,8.01,15.24,13.54,23.64,13.54.8,0,1.62-.05,2.46-.15,6.63-.81,14.98-5.42,17.68-13.66,1.63-4.96.72-9.68-1.27-13.89,11.3-14.5,26.35-17.48,31.7-18.08,29.29,17.19,64.96,26.3,104.39,26.29,2.33,0,4.67-.03,7.03-.1,21.09-.57,41.89-3.77,61.42-9.16,4.29,7.46,15,22.24,32.48,22.24.6,0,1.2-.02,1.81-.05,12.43-.72,21.59-5.63,27.4-9.99,3.23,6.86,12.97,24.61,27.05,24.61.71,0,1.44-.05,2.18-.14,2.22-.29,7.81-1.48,11.83-6.38,4.63-5.64,4.02-12.45,3.65-16.52-.52-5.75-2.27-11.27-5.68-17.89ZM33.77,216.12c6.75,0,12.24,5.15,12.24,11.48s-5.49,11.48-12.24,11.48-12.24-5.15-12.24-11.48,5.49-11.48,12.24-11.48ZM108.84,419.44c-.69,2.1-3.69,4.17-6.56,4.52-3.51.44-7.33-2.79-15.57-10.1-5.37-4.77-7.38-8.01-8.64-10.56-1.36-2.76-2.37-4.99-1.84-6.58.43-1.29,1.76-2.29,2.4-2.64.52-.28,1.16-.41,1.91-.41,4.54,0,12.91,4.86,19.65,11.72h0c1.33,1.35,3.25,3.31,4.96,5.42.19,1.98,1.24,3.86,3.04,5.01.08.05.16.09.24.13.53,1.28.72,2.48.39,3.49ZM417.26,430.45c-.86,1.05-2.47,1.5-3.2,1.6-4.04.53-11.59-8.03-16.04-18.32h0c-1.83-4.22-5.62-13-2.99-16.22,1.06-1.3,3.37-2.1,5.64-2.1.72,0,1.43.08,2.11.25,3.46.88,5.84,5.24,10.88,15.04,3.29,6.38,3.99,10.13,4.25,12.96.28,3.07.4,5.51-.66,6.8Z"/>
  <path class="st0" d="M284.87,228.43h0c1.3-4.24,4.88-19.19-3.65-33.76-7.47-12.75-22-20.82-36.91-20.74-12.45.13-25.19,6.18-34.06,16.18-8.21,9.26-12.04,20.68-10.79,32.16,2.22,20.31,19.54,36.71,40.29,38.15,1.01.07,2.02.1,3.01.1,21.2,0,37.11-15.77,42.12-32.09ZM240.67,247.04c-14.37-1-26.36-12.28-27.89-26.24-.84-7.67,1.82-15.41,7.49-21.8,6.31-7.11,15.57-11.59,24.17-11.68.08,0,.17,0,.25,0,7.76,0,18.85,3.68,24.96,14.11,5.77,9.86,3.3,20.14,2.41,23.05-3.7,12.03-15.63,23.67-31.39,22.55Z"/>
  <path class="st0" d="M291.92,138.67c-2.85,1.99-2.93,6.79-.18,10.71,2.75,3.93,7.28,5.5,10.13,3.51,2.85-1.99,2.93-6.79.18-10.71-2.75-3.93-7.28-5.5-10.13-3.51Z"/>
  <path class="st0" d="M349.03,193.48c3.17-1.41,4.17-6.1,2.22-10.48-1.95-4.38-6.1-6.79-9.27-5.38-3.17,1.41-4.17,6.1-2.22,10.48,1.95,4.38,6.1,6.79,9.27,5.38Z"/>
  <path class="st0" d="M410.72,168.6c-1.95-4.38-6.1-6.79-9.27-5.38-3.17,1.41-4.17,6.1-2.22,10.48,1.95,4.38,6.1,6.79,9.27,5.38s4.17-6.1,2.22-10.48Z"/>
  <path class="st0" d="M360.33,138.11c2.46-2.45,1.72-7.19-1.65-10.59-3.38-3.4-8.11-4.17-10.58-1.73-2.46,2.45-1.72,7.19,1.65,10.59,3.38,3.4,8.11,4.17,10.58,1.73Z"/>
  <path class="st0" d="M343.35,106.58c4.72.84,9.04-1.25,9.65-4.67.61-3.42-2.72-6.87-7.44-7.71-4.72-.84-9.04,1.25-9.65,4.67-.61,3.42,2.72,6.87,7.44,7.71Z"/>
  <path class="st0" d="M244.88,127.1c3.45-3.33,4.29-8.05,1.88-10.55-2.41-2.5-7.16-1.83-10.61,1.5-3.45,3.33-4.29,8.05-1.88,10.55,2.41,2.5,7.16,1.83,10.61-1.5Z"/>
  <path class="st0" d="M202.87,105.14c3.45-3.33,4.29-8.05,1.88-10.55-2.41-2.5-7.16-1.83-10.61,1.5-3.45,3.33-4.29,8.05-1.88,10.55s7.16,1.83,10.61-1.5Z"/>
  <path class="st0" d="M269.04,89.16c4.74-.72,8.16-4.08,7.65-7.51-.52-3.43-4.78-5.64-9.52-4.92-4.74.72-8.16,4.08-7.65,7.51.52,3.43,4.78,5.64,9.52,4.92Z"/>
  <path class="st0" d="M150.74,154.78c-2.3-2.6-7.08-2.12-10.66,1.06-3.58,3.18-4.62,7.87-2.31,10.47,2.3,2.6,7.08,2.12,10.66-1.06,3.58-3.18,4.62-7.87,2.31-10.47Z"/>
  <path class="st0" d="M153.49,213.72c3-3.74,3.23-8.53.52-10.71-2.71-2.17-7.34-.9-10.33,2.84-3,3.74-3.23,8.53-.52,10.71,2.71,2.17,7.34.9,10.33-2.84Z"/>
  <path class="st0" d="M395.11,233.48c-3.01,1.74-3.51,6.51-1.11,10.66,2.4,4.15,6.78,6.11,9.79,4.37,3.01-1.74,3.51-6.51,1.11-10.66-2.4-4.15-6.78-6.11-9.79-4.37Z"/>
  <path class="st0" d="M99.42,213.92c-1.5,4.55-.04,9.12,3.26,10.21,3.3,1.09,7.19-1.72,8.69-6.27,1.5-4.55.04-9.12-3.26-10.21-3.3-1.09-7.19,1.72-8.69,6.27Z"/>
  <path class="st0" d="M179.34,152.95c-3.27,3.51-3.85,8.27-1.31,10.64s7.25,1.45,10.52-2.06c3.27-3.51,3.85-8.27,1.31-10.64-2.54-2.37-7.25-1.45-10.52,2.06Z"/>
  <path class="st0" d="M327.28,280c-2.59,4.03-2.32,8.83.61,10.7,2.92,1.88,7.39.13,9.98-3.9,2.59-4.03,2.32-8.83-.61-10.7-2.92-1.88-7.39-.13-9.98,3.9Z"/>
  <path class="st0" d="M241.03,291.12c-3.85,9.27-2.11,18.81,3.88,21.29,5.99,2.48,13.96-3.02,17.81-12.29,3.85-9.27,2.11-18.81-3.88-21.29-5.99-2.48-13.96,3.02-17.81,12.29Z"/>
  <path class="st0" d="M177.25,296.06c5.54,2.3,12.92-2.79,16.48-11.37,3.56-8.58,1.95-17.4-3.59-19.7-5.54-2.3-12.92,2.79-16.48,11.37-3.56,8.58-1.95,17.4,3.59,19.7Z"/>
  <path class="st0" d="M210.84,302.04c1.99.24,3.96-.8,4.86-2.61l3.79-7.58c1.18-2.36.22-5.24-2.14-6.42-2.37-1.18-5.24-.23-6.42,2.14l-2.36,4.73c-5.27-.11-14,.85-15.47,8.21-.96,4.79-.47,11.41,7.29,15.73.73.41,1.53.6,2.32.6,1.68,0,3.31-.89,4.19-2.46,1.28-2.31.45-5.23-1.86-6.51-2.35-1.31-3.04-2.63-2.62-5.14,1.2-.73,5.19-1.08,8.43-.69Z"/>
  <path class="st0" d="M205.66,365.33c.17,0,.33,0,.49,0,22.99,0,30.75-24.67,31.63-37.8.11-1.6-.59-3.14-1.86-4.11-1.27-.98-2.94-1.25-4.45-.74-28.6,9.64-41.11-5.29-41.68-6-1.19-1.51-3.16-2.16-5.02-1.66-1.86.51-3.24,2.08-3.49,4-.14,1.06-3.26,26.04,7.78,38.82,4.21,4.87,9.79,7.39,16.58,7.49ZM227.07,333.87c-.6,2.54-1.48,5.5-2.79,8.42-4.11,9.19-10.12,13.56-18.47,13.47-4-.06-7.1-1.42-9.48-4.17-4.55-5.25-5.84-14.7-5.97-22.21,7.16,4.37,19.22,8.52,36.71,4.5Z"/>
</svg>